<svg width="533" height="234" viewBox="0 0 533 234" fill="none" xmlns="http://www.w3.org/2000/svg">
<path d="M176.49 82.0345C176.06 80.598 175.987 79.6061 176.49 77.5345C177.05 73.6635 177.394 73.4808 177.997 72.5343C180.411 70.5272 181.877 70.1176 184.497 70.5344C187.178 70.7565 187.442 71.4972 189.497 73.5343C191.042 76.1084 191.117 81.3956 191.117 81.3956C191.117 81.3956 191.116 86.8955 189.118 88.8956C187.12 90.8957 181.499 94.5346 180.496 95.5345C179.493 96.5344 179.49 98.0346 179.49 101.535C179.49 105.034 179.49 106.534 179.49 106.534" stroke="#1200A0" stroke-width="3" stroke-linecap="round"/>
<path d="M218.104 69.5823C215.023 69.4277 213.446 69.2875 209.12 69.5823C209.12 69.5823 205.121 71.5351 204.121 72.9534C203.121 74.3716 201.621 77.9534 201.621 77.9534C201.607 81.4687 201.618 83.4385 201.621 86.9534C201.736 88.4913 201.99 90.0173 202.499 93.0346C203.098 94.9703 203.609 95.9578 205.121 97.4534C208.515 98.2262 209.839 97.9786 212.12 97.4534C214.071 95.729 213.501 96.0344 214.104 92.4534C214.707 88.8724 214.091 85.6075 214.104 84.5823" stroke="#1200A6" stroke-width="3" stroke-linecap="round"/>
<path d="M152.482 92.9871C151.024 89.9721 150.735 88.1091 152.482 84.037C155.846 81.6836 156.482 80.0366 161.483 81.0343C166.484 82.0321 165.305 80.8403 168.481 85.0364C171.657 89.2324 170.76 95.5822 170.001 98.0347C169.242 100.487 165.483 104.037 165.483 104.037C163.035 104.367 161.09 104.512 155.483 104.037C153.053 104.899 152.252 106.112 151.483 109.037C150.756 111.771 150.713 113.303 151.483 116.037C152.178 117.905 152.771 118.802 154.483 120.037C157.216 120.818 158.749 121.255 161.483 122.037C163.793 128.109 162.654 130.456 156.482 132.987" stroke="#2000A0" stroke-width="3" stroke-linecap="round"/>
<path d="M13.799 191.583C13.799 191.583 12.0094 191.584 22.5041 191.583C32.9988 191.583 27.0011 173.535 30.5 167.034C33.6764 161.133 43.148 161.699 51.4991 163.838C53.1686 164.266 54.8375 164.891 56.0557 166.11C58.3082 168.364 58.8723 171.527 58.9999 178.035C57.6617 190.242 58.9999 195.535 61.4999 197.535C61.9901 197.928 62.4523 198.237 62.8993 198.468C66.39 200.267 69.4522 195.618 70.0967 191.744C70.7423 187.864 70.8748 183.161 70.9762 176.62C70.9925 175.568 71.0587 174.507 71.2969 173.482C71.621 172.086 72.1408 170.993 73.6703 169.88C75.115 168.829 76.8904 168.291 78.6767 168.255C82.5053 168.178 84.1888 169.61 89.9999 167.535C96.4631 165.228 97.3959 159.951 99.8508 150.488C100.273 148.86 100.882 147.166 102.364 146.371C104.779 145.077 108.371 144.672 109.501 142.035C111.001 138.535 108.001 127.035 112.498 124.535C116.995 122.035 127.549 123.321 135.999 124.535C138.136 124.932 139.605 125.495 140.79 126.635C142.729 128.501 143.047 131.422 143.058 134.114C143.072 137.457 142.973 139.614 142.782 141.309C142.465 144.127 141.339 146.979 139.035 148.631C137.652 149.623 135.933 150.218 133.23 150.438C131.424 150.585 129.597 150.334 127.889 149.73C124.753 148.622 122.877 147.207 122.235 143.888C121.751 141.381 122.274 138.647 123.911 136.688C125.45 134.847 127.305 134.609 130.499 135.535" stroke="url(#paint0_linear_862_1102)" stroke-width="3" stroke-linecap="round"/>
<path d="M47.4996 124.034C47.4996 124.034 49.5834 142.947 44.5819 148.948C39.5804 154.948 30.4424 146.948 22.4424 152.948C14.4424 158.947 24.0829 173.259 14.4994 178.034" stroke="#060DAB" stroke-width="3" stroke-linecap="round"/>
<path d="M14.3726 68.7157C18.0029 73.5343 27.0038 70.5338 32.0007 73.5343C36.9976 76.5348 31.0029 90.0339 37.4968 93.0352C43.9908 96.0364 50.7368 94.4115 52.3796 98.0352C52.8614 102.566 52.2404 106.611 52.3726 113.716" stroke="url(#paint1_linear_862_1102)" stroke-width="3" stroke-linecap="round"/>
<path d="M90.9999 49.0342C91.4272 53.0368 92.2138 54.4046 91 61.0343C91 61.0343 89.5089 66.0344 87.5005 67.5344C85.4921 69.0343 84.1484 70.277 82.0005 72.0344C81.1861 73.3523 80.6346 74.5802 80.0003 77.5343C79.5861 79.6731 79.3491 80.8781 79.5005 83.5344C79.73 85.6622 80.1138 87.0655 81.5003 90.0343C82.3524 91.6985 83.4676 92.5665 85.4921 94.1109" stroke="url(#paint2_linear_862_1102)" stroke-width="3" stroke-linecap="round"/>
<path d="M128.001 56.0341C124.494 56.9021 122.562 56.7157 119 55.0344C115.774 50.9483 114.802 49.0134 113 45.5344C111.63 43.5609 110.4 43.2211 108 43.0344C104.554 43.2955 103.517 44.0295 102 45.5344C100.793 48.5511 100.768 50.7879 101 55.0344L101 73.0351" stroke="#340096" stroke-width="3" stroke-linecap="round"/>
<path d="M108.417 19.2177C108.461 23.8267 115.883 24.6935 120.476 28.4631C125.068 32.2327 122.178 37.7723 122.417 44.2177" stroke="#2000A0" stroke-width="3" stroke-linecap="round"/>
<path d="M75.422 19.4221L75.922 27.4221C76.3576 32.5847 77.5118 33.6858 79.4194 35.9221C85.2848 37.5063 88.5799 37.455 94.422 36.9221C97.1206 36.4577 98.2581 35.6388 99.922 33.4221C100.144 30.8163 100.005 29.2178 98.922 25.9221C97.0596 24.4032 95.881 23.7043 93.4219 22.922C91.1413 23.0886 89.9017 23.2075 86.9219 22.922C84.8785 21.6935 84.3877 21.0497 83.9219 19.922" stroke="url(#paint3_linear_862_1102)" stroke-width="3" stroke-linecap="round"/>
<path d="M15.9991 24.0343C18.6751 24.1296 19.9912 24.3677 22.4991 25.0343C25.4413 25.8698 26.6845 26.4303 28.4967 27.5339C30.1864 31.1303 30.5554 32.9609 30.502 36.0343C30.7825 40.0993 31.0575 42.9073 30.502 47.0344C30.502 50.3539 30.0024 51.7148 30.0024 55.0343C28.8288 57.0773 27.9081 58.1786 25.5024 60.0343C23.5464 60.2914 22.4601 60.3796 20.5024 60.0343" stroke="url(#paint4_linear_862_1102)" stroke-width="3" stroke-linecap="round"/>
<path d="M48.3132 178.426C46.4476 177.93 45.3985 177.867 43.5 179.534C42.1985 181.01 41.8526 181.606 41.5 182.534C40.5714 188.681 40.8861 191.691 41.5 197.034C40.967 200.703 40.1549 201.845 38.4997 203.534C35.5846 204.961 33.944 205.297 31 204.534C27.5184 204.726 28.5 203.534 22 203.534C15.5 203.534 14.3132 205.426 14.3132 205.426" stroke="#1105AF" stroke-width="3" stroke-linecap="round"/>
<path d="M139.988 160.033C142.967 159.973 144.602 160.058 146.99 163.033C148.394 166.863 148.506 172.33 148.492 183.033C148.457 187.72 148.475 190.347 148.496 195.034C148.496 195.034 148.496 195.034 148.49 199.034C148.484 203.034 143.491 203.909 139.99 206.533C138.29 208.022 139.999 215.535 137.499 216.535C135 217.534 120.247 217.678 109.49 217.534" stroke="url(#paint5_linear_862_1102)" stroke-width="3" stroke-linecap="round"/>
<path d="M175.413 167.733C170.162 167.024 166.519 168.537 164.01 170.036C161.5 171.534 162.091 170.84 161 175.034C159.236 180.098 159.447 186.581 161.001 192.036C164.127 195.964 163.596 196.695 166.01 197.035C172.618 197.77 176.332 197.74 182.51 197.035C187.66 196.735 189.207 196.964 193.5 198.648C195.837 200.105 196.99 201.761 198 204.648C199.01 207.534 198.453 208.695 199.01 211.035C199.319 213.651 199.651 213.818 201.01 216.431C204.231 218.726 205.935 218.185 209.01 217.733L213.413 217.733" stroke="url(#paint6_linear_862_1102)" stroke-width="3" stroke-linecap="round"/>
<path d="M201.563 188.784C199.845 188.429 198.979 187.799 197.502 185.535C196.366 183.41 195.976 182.117 196.002 179.535L196.002 164.034C196.509 161.496 196.992 160.153 199.999 158.534C202.354 157.635 203.664 157.535 205.997 157.534C208.168 157.698 209.482 158.156 212.56 161.533C213.021 162.596 213.311 162.994 213.502 165.535L213.502 170.035" stroke="#21009F" stroke-width="3" stroke-linecap="round"/>
<path d="M220.503 167.534C219.797 160.72 219.231 156.544 220.502 154.035C222.278 152.205 223.416 151.514 225.502 150.535C229.035 149.609 234 150.535 235.502 150.535C237.003 150.535 238.276 149.074 238.002 145.534C238.002 145.534 238.002 137.534 238.002 134.534C238.002 131.534 241 130.534 241 130.534" stroke="#0C09A7" stroke-width="3" stroke-linecap="round"/>
<path d="M262.5 167.534C263.203 158.823 264.326 155.458 262.5 153.034C260.012 151.7 259.43 150.932 256.553 150.8C254.5 150.8 252.5 150.8 249.5 150.8C246.5 150.8 245.756 150.009 245.995 145.532C245.995 145.532 244.939 137.941 244.825 134.265C244.711 130.589 240.5 130.534 240.5 130.534" stroke="#2B009F" stroke-width="3" stroke-linecap="round"/>
<path d="M51.3859 194.034C51.3859 194.034 50.7227 215.292 47.3682 217.205C44.0137 219.117 27.8967 217.688 15.0003 217.972" stroke="url(#paint7_linear_862_1102)" stroke-width="3" stroke-linecap="round"/>
<path d="M163.002 19.0355C162.657 24.2168 163.191 27.0542 165.002 32.0355C168.674 34.8452 170.05 35.3827 172.002 35.5355C175.593 34.3641 177.316 34.3604 180.502 35.5355C182.098 36.996 182.783 38.1119 183.502 40.5355C182.626 49.3799 183.443 52.156 185.666 55.9054C187.5 58.4441 189.062 59.0982 192.002 60.0355C195.508 61.6025 198.316 60.5679 201.499 60.0355C205.408 58.9763 207.233 57.8738 208.999 55.9054C210.499 54.535 213.416 51.2846 213.999 49.535C215.499 45.035 215.499 44.5599 215.499 42.535C215.499 39.035 215.499 37.535 214.499 34.0352C212.101 30.3347 210.161 24.738 206.003 25.5344C206.694 29.3571 206.302 32.5627 205.5 38.5344C203.425 44.4224 202.191 45.0102 200 46.0344C196.245 48.4451 194.435 47.9261 192.002 48.035" stroke="url(#paint8_linear_862_1102)" stroke-width="3" stroke-linecap="round"/>
<path d="M50.4896 83.0361C56.1801 83.1963 56.3131 82.9794 65.9935 83.5344C68.1714 83.8158 68.8457 84.7812 69.7088 86.4695C69.8986 86.8408 70.006 87.2493 70.0168 87.6663C70.1719 93.6562 68.5384 100.551 69.9935 101.034C71.5 101.534 74.5 101.034 75.9942 102.034C77.4164 102.986 79.6603 105.294 80.8257 107.673C80.9424 107.911 81.0153 108.167 81.0516 108.43C81.8424 114.151 80.9942 120.071 80.9942 121.679C80.9942 123.323 80.9942 127.034 82.9942 129.534C84.9942 132.034 86.9942 132.534 86.9942 132.534C86.9942 132.534 88.4885 133.034 91.4942 133.034C94.5 133.034 96.9885 133.534 98.4942 133.034C100 132.534 101.488 131.534 101.494 129.034C101.5 126.534 100.988 123.39 98.4942 122.534C96 121.679 90.4942 122.534 90.4942 122.534" stroke="url(#paint9_linear_862_1102)" stroke-width="3" stroke-linecap="round"/>
<path d="M133.001 36.0345C132.952 36.8615 133.583 37.5713 134.41 37.62C135.237 37.6686 135.947 37.0376 135.995 36.2106L134.498 36.1226L133.001 36.0345ZM135.498 19.1226L134.001 19.0345L133.001 36.0345L134.498 36.1226L135.995 36.2106L136.995 19.2106L135.498 19.1226Z" fill="#26019C"/>
<line x1="44.5" y1="20.5344" x2="44.5" y2="29.5344" stroke="url(#paint10_linear_862_1102)" stroke-width="3" stroke-linecap="round"/>
<path d="M73.4993 210.034C73.4993 210.034 78.3059 207.248 81 204.535C84.3536 199.571 84.2682 198.825 84.5605 197.035C85.0132 194.615 85.2233 192.998 85.4987 189.534L85.4998 183.535" stroke="url(#paint11_linear_862_1102)" stroke-width="3" stroke-linecap="round"/>
<path d="M59.9201 217.542L82.0041 218.535C86.49 218.276 87 217.542 88.0014 216.534C89.0027 215.527 88.7584 211.606 90.0014 210.541C92.3667 209.436 95.3702 209.796 100.92 210.542" stroke="url(#paint12_linear_862_1102)" stroke-width="3" stroke-linecap="round"/>
<line x1="157.5" y1="207.534" x2="185.5" y2="207.534" stroke="url(#paint13_linear_862_1102)" stroke-width="3" stroke-linecap="round"/>
<line x1="149.5" y1="216.534" x2="173.5" y2="216.534" stroke="url(#paint14_linear_862_1102)" stroke-width="3" stroke-linecap="round"/>
<path d="M257.505 139.33C257.503 131.534 259.183 117.529 255.503 118.534C252.5 115.534 238.5 112.534 227.5 118.534C226.947 120.803 225.637 124.569 225.409 128.036L225.409 139.33" stroke="#1B019F" stroke-width="3" stroke-linecap="round"/>
<path d="M68.0811 117.787C66.8596 119.892 66.0798 122.424 65.708 125.059C65.1427 129.065 65.4908 133.502 66.832 137.473C68.1719 141.439 70.5455 145.055 74.123 147.224C77.0651 149.007 80.6856 149.729 84.9395 149.008C83.7436 150.814 81.7878 152.531 79.4219 153.855C75.9839 155.778 72.1658 156.598 69.4678 155.893C60.9025 153.652 56.0824 145.101 56.5283 133.552C58.0041 127.434 59.6887 123.468 61.9434 121.018C63.5286 119.295 65.4771 118.237 68.0811 117.787Z" stroke="#BE0080" stroke-width="3"/>
<path d="M244.15 102.02L244.565 102.224L244.989 102.04L255.756 97.3879C259.763 97.0535 262 96.7824 265.714 97.2405C265.567 97.677 265.406 98.0669 265.197 98.4592C264.832 99.1455 264.3 99.8839 263.402 100.904C262.552 101.783 261.9 102.364 261.152 102.811C260.407 103.256 259.514 103.6 258.151 103.923L258.125 103.929L258.099 103.937C255.319 104.756 253.324 104.887 249.388 104.84L244.973 103.028L244.565 102.861L244.168 103.047L240.294 104.864C238.789 105.053 236.779 105.057 235.087 105.004C234.223 104.977 233.457 104.936 232.908 104.903C232.634 104.886 232.414 104.871 232.264 104.86C232.23 104.857 232.199 104.855 232.172 104.853C228.366 103.434 226.854 102.686 225.921 101.089L225.92 101.087L225.079 99.6799C224.829 99.2621 224.61 98.8902 224.428 98.5481C224.316 98.338 224.228 98.1568 224.16 98.0012C227.279 96.9386 229.355 96.8392 232.915 96.4856L244.15 102.02ZM261.66 76.2493C262.625 76.1067 263.61 76.1392 264.85 76.428C264.838 80.1842 264.587 82.498 263.213 86.551C260.436 91.1653 258.53 92.7883 254.992 95.5393L245.529 99.6272L245.284 93.8538L249.992 86.6399L250.008 86.6477L252.835 81.0588L252.885 80.9592C254.23 79.5533 255.287 78.7957 257.657 77.5051C259.306 76.8519 260.493 76.4218 261.66 76.2493ZM224.169 76.6477C226.097 76.6514 227.396 76.7622 229.47 77.1086V77.1096C231.416 77.4746 232.648 77.9177 233.665 78.4768C234.655 79.0212 235.478 79.6934 236.61 80.6233L243.272 93.8167V99.3577L233.695 94.6399C232.491 93.3969 231.461 92.5403 230.559 91.7004C229.616 90.8232 228.703 89.8701 227.603 88.2893C226.449 86.6323 225.975 85.9681 225.559 84.5149C225.149 83.0849 224.813 80.9439 224.169 76.6477ZM245.033 62.3059C246.331 63.6097 247.182 64.6601 247.803 65.7043C248.504 66.885 248.941 68.1075 249.369 69.7727L249.376 69.7981L249.385 69.8245C250.765 74.2053 251.082 76.4622 251.062 80.1311L248.321 85.5403L244.383 91.5764L238.368 79.6653C238.093 78.1118 238.001 76.8889 238.115 75.5979C238.233 74.2597 238.576 72.8006 239.222 70.7805C240.072 68.2068 240.904 66.4844 241.894 65.1653C242.738 64.0398 243.73 63.1671 245.033 62.3059Z" stroke="url(#paint15_linear_862_1102)" stroke-width="2"/>
<path d="M20.6514 134.016L21.0742 134.229L21.5059 134.037L31.9844 129.404C34.0341 129.392 35.7329 129.225 37.3301 129.144C38.6992 129.074 40.0736 129.065 41.7197 129.247C41.5761 129.684 41.4185 130.075 41.2139 130.468C40.8545 131.158 40.332 131.899 39.4473 132.926C38.6224 133.797 37.9897 134.373 37.2656 134.816C36.5406 135.259 35.6706 135.602 34.3418 135.924L34.3154 135.93L34.2891 135.939C31.5807 136.756 29.6369 136.887 25.7988 136.84L21.4893 135.031L21.0742 134.857L20.6689 135.051L16.8877 136.865C15.4212 137.053 13.4641 137.057 11.8135 137.004C10.9701 136.977 10.2228 136.936 9.68652 136.903C9.4185 136.886 9.2029 136.871 9.05566 136.86C9.02459 136.857 8.99657 136.855 8.97168 136.853C5.25936 135.437 3.79032 134.691 2.87988 133.098L2.87793 133.096L2.05664 131.689C1.81231 131.271 1.59855 130.899 1.41992 130.557C1.30746 130.341 1.21897 130.156 1.15234 129.997C4.18889 128.939 6.21136 128.839 9.68262 128.487L20.6514 134.016ZM37.7881 108.248C38.721 108.107 39.6747 108.139 40.876 108.424C40.8651 112.185 40.6201 114.501 39.2754 118.559C36.5612 123.173 34.6988 124.795 31.2441 127.544L22.0391 131.615L21.8008 125.849L26.4023 118.631L26.4189 118.64L29.1514 113.11L29.2295 112.95C30.5428 111.546 31.5739 110.791 33.8857 109.502C35.4974 108.849 36.6527 108.42 37.7881 108.248ZM1.16504 108.648C3.03918 108.652 4.3058 108.765 6.33008 109.112C8.22019 109.475 9.41598 109.917 10.4033 110.473C11.3682 111.016 12.1711 111.685 13.2783 112.615L19.7891 125.811V131.341L10.4766 126.649C9.29946 125.405 8.29276 124.548 7.41113 123.708C6.49026 122.832 5.59807 121.879 4.52246 120.298C3.39566 118.642 2.93229 117.976 2.52441 116.521C2.12329 115.089 1.79482 112.946 1.16504 108.648ZM21.5293 94.3176C22.7856 95.6113 23.6105 96.6567 24.2139 97.6956C24.9001 98.8772 25.3288 100.1 25.7471 101.767L25.7529 101.792L25.7607 101.818C27.1103 106.201 27.4215 108.461 27.4014 112.134L24.7178 117.555L20.8994 123.542L15.042 111.673C14.7726 110.117 14.6832 108.891 14.7949 107.596C14.9106 106.255 15.2457 104.795 15.877 102.775C16.7088 100.2 17.5215 98.4759 18.4893 97.1565C19.3089 96.039 20.27 95.1721 21.5293 94.3176Z" stroke="url(#paint16_linear_862_1102)" stroke-width="2"/>
<path d="M235.659 205.38L236.005 205.517L236.356 205.395L248.853 201.046C251.454 201.039 253.46 200.882 255.369 200.804C256.998 200.738 258.616 200.728 260.613 200.908C260.465 201.24 260.302 201.545 260.099 201.852C259.679 202.485 259.065 203.174 258.016 204.132C257.035 204.948 256.271 205.499 255.384 205.926C254.491 206.356 253.424 206.684 251.823 206.99L251.802 206.993L251.779 206.998C248.495 207.778 246.136 207.898 241.518 207.852L236.342 206.142L236.006 206.031L235.675 206.156L231.138 207.868C229.358 208.053 226.98 208.056 224.999 208.006C223.993 207.981 223.102 207.943 222.463 207.911C222.144 207.896 221.888 207.881 221.712 207.87C221.65 207.867 221.598 207.863 221.557 207.861C219.382 207.209 217.819 206.707 216.64 206.157C215.466 205.611 214.734 205.047 214.194 204.303L214.192 204.3C213.473 203.316 212.888 202.57 212.466 201.934C212.387 201.815 212.32 201.708 212.262 201.611C215.933 200.606 218.386 200.517 222.554 200.182L235.659 205.38ZM255.76 181.305C256.95 181.163 258.159 181.2 259.67 181.49C259.661 183.112 259.591 184.418 259.363 185.727C259.105 187.212 258.638 188.737 257.794 190.744C254.579 195.042 252.367 196.559 248.243 199.141L236.956 203.069L236.675 197.738L242.102 191.041L242.117 191.051L245.445 185.75C247.017 184.428 248.26 183.713 251.035 182.496C252.949 181.886 254.36 181.471 255.76 181.305ZM212.213 181.672C214.547 181.671 216.084 181.775 218.563 182.109V182.11C220.846 182.454 222.306 182.876 223.516 183.411C224.686 183.93 225.655 184.567 226.969 185.436L234.656 197.696V202.83L223.224 198.296C221.822 197.129 220.627 196.331 219.571 195.539C218.473 194.717 217.414 193.825 216.14 192.352C214.796 190.797 214.265 190.193 213.794 188.871C213.33 187.567 212.947 185.614 212.213 181.672ZM236.577 168.217C238.173 169.495 239.201 170.508 239.94 171.51C240.744 172.599 241.243 173.723 241.734 175.262L241.744 175.292L241.756 175.323C243.337 179.364 243.705 181.44 243.687 184.79L240.54 189.792L235.76 195.69L228.643 184.341C228.332 182.921 228.232 181.815 228.359 180.654C228.493 179.434 228.883 178.092 229.632 176.207L229.631 176.206C230.609 173.826 231.564 172.235 232.704 171.012C233.729 169.912 234.948 169.065 236.577 168.217Z" stroke="url(#paint17_linear_862_1102)" stroke-width="2"/>
<path d="M118.649 198.024L119.057 198.22L119.473 198.044L130.486 193.39C134.738 193.054 136.913 192.781 140.706 193.242C140.557 193.675 140.393 194.062 140.181 194.451C139.805 195.14 139.259 195.88 138.334 196.906C137.469 197.779 136.804 198.359 136.04 198.806C135.274 199.253 134.356 199.597 132.96 199.921L132.909 199.935C130.059 200.756 128.012 200.887 123.981 200.84L119.456 199.025L119.057 198.865L118.666 199.043L114.696 200.864C113.153 201.054 111.093 201.057 109.36 201.004C108.476 200.977 107.693 200.937 107.131 200.903C106.85 200.886 106.625 200.871 106.471 200.86C106.434 200.857 106.401 200.854 106.372 200.852C102.473 199.431 100.92 198.681 99.9629 197.081L99.9619 197.078L99.1016 195.672C98.8458 195.254 98.6224 194.882 98.4355 194.54C98.3237 194.336 98.235 194.159 98.167 194.006C101.369 192.939 103.498 192.839 107.147 192.485L118.649 198.024ZM136.532 172.249C137.528 172.105 138.545 172.139 139.823 172.431C139.812 176.182 139.556 178.493 138.153 182.539C135.311 187.157 133.362 188.781 129.74 191.534L120.02 195.641L119.769 189.859L124.581 182.648L124.598 182.656L127.488 177.067L127.539 176.967C128.916 175.56 129.999 174.801 132.424 173.51C134.112 172.856 135.331 172.423 136.532 172.249ZM98.1738 172.648C100.166 172.651 101.501 172.762 103.644 173.113C105.627 173.477 106.886 173.922 107.927 174.482C108.942 175.028 109.786 175.701 110.945 176.631L117.756 189.82V195.373L107.917 190.635C106.685 189.391 105.632 188.535 104.707 187.694C103.742 186.816 102.808 185.862 101.683 184.281C100.502 182.623 100.019 181.96 99.5938 180.509C99.175 179.081 98.8324 176.942 98.1738 172.648ZM119.539 158.294C120.878 159.607 121.753 160.663 122.391 161.712C123.108 162.892 123.555 164.113 123.992 165.778L123.999 165.804L124.008 165.83C125.418 170.207 125.743 172.462 125.723 176.124L122.925 181.527L118.865 187.61L112.694 175.659C112.414 174.108 112.32 172.888 112.437 171.6C112.557 170.264 112.907 168.807 113.567 166.787C114.437 164.215 115.286 162.493 116.299 161.174C117.169 160.041 118.192 159.162 119.539 158.294Z" stroke="url(#paint18_linear_862_1102)" stroke-width="2"/>
<path d="M194.15 141.02L194.565 141.224L194.989 141.04L205.756 136.388C209.763 136.054 212 135.782 215.714 136.24C215.567 136.677 215.406 137.067 215.197 137.459C214.832 138.145 214.3 138.884 213.402 139.904C212.552 140.783 211.9 141.364 211.152 141.811C210.407 142.256 209.514 142.6 208.151 142.923L208.125 142.929L208.099 142.937C205.319 143.756 203.324 143.887 199.388 143.84L194.973 142.028L194.565 141.861L194.168 142.047L190.294 143.864C188.789 144.053 186.779 144.057 185.087 144.004C184.223 143.977 183.457 143.936 182.908 143.903C182.634 143.886 182.414 143.871 182.264 143.86C182.23 143.857 182.199 143.855 182.172 143.853C178.366 142.434 176.854 141.686 175.921 140.089L175.92 140.087L175.079 138.68C174.829 138.262 174.61 137.89 174.428 137.548C174.316 137.338 174.228 137.157 174.16 137.001C177.279 135.939 179.355 135.839 182.915 135.486L194.15 141.02ZM211.66 115.249C212.625 115.107 213.61 115.139 214.85 115.428C214.838 119.184 214.587 121.498 213.213 125.551C210.436 130.165 208.53 131.788 204.992 134.539L195.529 138.627L195.284 132.854L199.992 125.64L200.008 125.648L202.835 120.059L202.885 119.959C204.23 118.553 205.287 117.796 207.657 116.505C209.306 115.852 210.493 115.422 211.66 115.249ZM174.169 115.648C176.097 115.651 177.396 115.762 179.47 116.109V116.11C181.416 116.475 182.648 116.918 183.665 117.477C184.655 118.021 185.478 118.693 186.61 119.623L193.272 132.817V138.358L183.695 133.64C182.491 132.397 181.461 131.54 180.559 130.7C179.616 129.823 178.703 128.87 177.603 127.289C176.449 125.632 175.975 124.968 175.559 123.515C175.149 122.085 174.813 119.944 174.169 115.648ZM195.033 101.306C196.331 102.61 197.182 103.66 197.803 104.704C198.504 105.885 198.941 107.108 199.369 108.773L199.376 108.798L199.385 108.824C200.765 113.205 201.082 115.462 201.062 119.131L198.321 124.54L194.383 130.576L188.368 118.665C188.093 117.112 188.001 115.889 188.115 114.598C188.233 113.26 188.576 111.801 189.222 109.781C190.072 107.207 190.904 105.484 191.894 104.165C192.738 103.04 193.73 102.167 195.033 101.306Z" stroke="url(#paint19_linear_862_1102)" stroke-width="2"/>
<path d="M58.1504 65.0198L58.5654 65.2239L58.9893 65.0403L69.7266 60.4006C71.7413 60.3511 72.148 59.634 79.6963 60.2922C79.5541 60.7079 79.398 61.0825 79.1973 61.4592C78.8315 62.1455 78.3005 62.8839 77.4023 63.9036C76.5517 64.7827 75.9001 65.3641 75.1523 65.8108C74.407 66.2559 73.5135 66.6 72.1514 66.9231L72.125 66.929L72.0986 66.9368C69.3189 67.7562 67.3236 67.8872 63.3877 67.8401L58.9727 66.0276L58.5654 65.8606L58.168 66.0471L54.2939 67.8635C52.7886 68.053 50.7791 68.0572 49.0869 68.0042C48.2231 67.977 47.4574 67.9365 46.9082 67.9026C46.6342 67.8857 46.4144 67.8705 46.2637 67.8596C46.2296 67.8571 46.1987 67.8548 46.1719 67.8528C42.366 66.4344 40.8544 65.6856 39.9209 64.0891L39.9199 64.0872L39.0791 62.6799C38.8291 62.2621 38.6105 61.8902 38.4277 61.5481C38.3155 61.338 38.2275 61.1568 38.1602 61.0012C41.2789 59.9386 43.355 59.8392 46.915 59.4856L58.1504 65.0198ZM75.6602 39.2493C76.6247 39.1067 77.6099 39.1392 78.8496 39.428C78.8383 43.1842 78.5873 45.498 77.2129 49.551C74.4356 54.1653 72.5299 55.7883 68.9922 58.5393L59.5293 62.6272L59.2842 56.8538L63.9922 49.6399L64.0078 49.6477L66.835 44.0588L66.8848 43.9592C68.2304 42.5533 69.2873 41.7957 71.6572 40.5051C73.306 39.8519 74.4926 39.4218 75.6602 39.2493ZM38.1689 39.6477C40.0971 39.6514 41.3962 39.7622 43.4697 40.1086V40.1096C45.4161 40.4746 46.6483 40.9177 47.665 41.4768C48.6549 42.0212 49.4778 42.6934 50.6104 43.6233L57.2725 56.8167V62.3577L47.6953 57.6399C46.4913 56.3969 45.4613 55.5403 44.5586 54.7004C43.6158 53.8232 42.703 52.8701 41.6025 51.2893C40.449 49.6323 39.9752 48.9681 39.5586 47.5149C39.1487 46.0849 38.8131 43.9439 38.1689 39.6477ZM59.0332 25.3059C60.3308 26.6097 61.1822 27.6601 61.8027 28.7043C62.5043 29.885 62.9415 31.1075 63.3691 32.7727L63.376 32.7981L63.3848 32.8245C64.7648 37.2053 65.082 39.4622 65.0615 43.1311L62.3213 48.5403L58.3828 54.5764L52.3682 42.6653C52.0932 41.1118 52.0013 39.8889 52.1152 38.5979C52.2334 37.2597 52.5758 35.8006 53.2217 33.7805C54.0724 31.2068 54.9035 29.4844 55.8936 28.1653C56.7382 27.0398 57.7301 26.1671 59.0332 25.3059Z" stroke="url(#paint20_linear_862_1102)" stroke-width="2"/>
<path d="M118.14 107.04L118.494 107.194L118.86 107.069L132.541 102.392C133.74 102.3 134.475 102.201 135.039 102.115C135.629 102.026 135.953 101.966 136.428 101.938C137.316 101.886 138.703 101.953 142.646 102.294C142.49 102.691 142.318 103.05 142.099 103.411C141.682 104.099 141.074 104.842 140.041 105.873C139.082 106.745 138.336 107.331 137.473 107.784C136.604 108.241 135.566 108.591 134.002 108.917L133.979 108.922L133.357 109.077C130.451 109.775 128.165 109.886 123.938 109.84L118.877 108.012L118.513 107.88L118.155 108.029L113.719 109.859C111.983 110.054 109.665 110.058 107.728 110.004C106.743 109.977 105.87 109.937 105.244 109.903C104.931 109.886 104.68 109.87 104.508 109.859C104.452 109.855 104.405 109.851 104.366 109.849C100.012 108.422 98.2461 107.658 97.1719 106.041L97.1699 106.038L96.2139 104.631C95.93 104.214 95.682 103.842 95.4746 103.5C95.3648 103.319 95.2759 103.161 95.2051 103.023C98.8197 101.935 101.216 101.84 105.312 101.481L118.14 107.04ZM137.895 81.2512C139.048 81.1012 140.223 81.1397 141.696 81.4495C141.682 85.1807 141.394 87.4799 139.84 91.512C138.197 93.927 137.196 95.4811 136.09 96.8049C135.017 98.0879 133.842 99.1514 131.876 100.505L119.472 104.745L119.188 98.884L124.527 91.6858L124.544 91.6956L127.757 86.1038L127.812 86.0081C129.353 84.5902 130.567 83.825 133.281 82.5247C135.158 81.87 136.533 81.4283 137.895 81.2512ZM95.1943 81.6467C97.4747 81.6461 98.9769 81.7562 101.399 82.1125V82.1135C103.63 82.4816 105.053 82.9311 106.231 83.5012C107.375 84.0545 108.323 84.7363 109.612 85.6682L117.173 98.842V104.442L106.025 99.6096C104.653 98.361 103.483 97.5061 102.449 96.6594C101.373 95.7784 100.333 94.8218 99.0811 93.2395C97.7672 91.5786 97.2355 90.9199 96.7666 89.4807C96.304 88.0608 95.9248 85.9331 95.1943 81.6467ZM119.065 67.2483C120.609 68.6025 121.61 69.6813 122.333 70.7522C123.128 71.9291 123.622 73.1453 124.106 74.804L124.114 74.8323L124.125 74.8606C125.686 79.2218 126.047 81.4658 126.025 85.1028L122.922 90.4934L118.279 96.7532L111.322 84.6282C111.013 83.0882 110.912 81.8812 111.04 80.6096C111.173 79.2832 111.56 77.8314 112.295 75.8088L112.294 75.8079C113.257 73.2469 114.198 71.5318 115.322 70.2141C116.319 69.0458 117.498 68.1449 119.065 67.2483Z" stroke="url(#paint21_linear_862_1102)" stroke-width="2"/>
<path d="M151.714 68.7834L152.13 68.9885L152.556 68.804L161.549 64.9016C163.316 64.8908 164.778 64.7506 166.136 64.6829C167.256 64.627 168.376 64.6164 169.702 64.7493C169.598 65.0362 169.483 65.3005 169.343 65.5657C169.042 66.1327 168.601 66.7483 167.845 67.6096C167.14 68.3404 166.607 68.816 166 69.1799C165.392 69.5446 164.657 69.8293 163.521 70.0999L163.469 70.1135C161.162 70.7965 159.506 70.9089 156.224 70.8704L152.538 69.3518L152.131 69.1838L151.731 69.3713L148.499 70.8938C147.249 71.0492 145.582 71.0536 144.169 71.009C143.445 70.9862 142.802 70.9516 142.342 70.9231C142.112 70.9089 141.928 70.8962 141.802 70.887C141.782 70.8855 141.763 70.8833 141.746 70.8821C138.554 69.6866 137.345 69.0708 136.595 67.7815L136.594 67.7795L135.886 66.5901C135.677 66.2391 135.495 65.928 135.342 65.6409C135.284 65.5317 135.235 65.4324 135.192 65.343C137.69 64.5093 139.401 64.4191 142.307 64.1301L151.714 68.7834ZM166.533 47.0364C167.29 46.9241 168.064 46.9438 169.032 47.1575C169.018 50.2381 168.799 52.1674 167.671 55.5139C165.356 59.3729 163.772 60.7316 160.818 63.0383L153.095 66.3889L152.899 61.7922L156.841 55.7258L156.854 55.7327L159.212 51.0491L159.262 50.9495C160.37 49.7891 161.245 49.1601 163.216 48.0823C164.597 47.533 165.575 47.1786 166.533 47.0364ZM135.167 47.3752C136.68 47.3852 137.746 47.4816 139.411 47.761V47.762C141.036 48.0679 142.054 48.4379 142.891 48.8997C143.701 49.3472 144.377 49.8984 145.317 50.6741L150.888 61.7522V66.1428L143.092 62.2874C142.083 61.2434 141.214 60.5156 140.467 59.8176C139.68 59.0828 138.92 58.2866 138.002 56.9622C137.031 55.562 136.647 55.0204 136.305 53.8206C135.969 52.644 135.692 50.8875 135.167 47.3752ZM152.508 35.3118C153.54 36.3629 154.221 37.2132 154.719 38.0549C155.298 39.0344 155.663 40.0513 156.021 41.4504L156.026 41.4768L156.035 41.5022C157.187 45.1728 157.453 47.063 157.438 50.1223L157.323 50.3538L155.156 54.6467L151.998 59.509L147.076 49.72C146.849 48.4266 146.775 47.4131 146.869 46.3459C146.967 45.2324 147.252 44.013 147.793 42.3127C148.506 40.147 149.198 38.7096 150.017 37.6145C150.69 36.714 151.477 36.0077 152.508 35.3118Z" stroke="url(#paint22_linear_862_1102)" stroke-width="2"/>
<path d="M189.465 18.8486C185.582 28.2609 187.577 31.1462 195.465 33.8486" stroke="url(#paint23_linear_862_1102)" stroke-width="3"/>
<path d="M258.5 63.0344C259.115 58.2969 258.594 55.4841 255 50.0344C249.952 47.7794 246.792 47.6616 241 48.0344C235.577 48.1255 232.933 48.5686 229.5 50.0344C226.34 51.6132 225.141 53.7228 225.5 63.0344" stroke="#1701A4" stroke-width="3" stroke-linecap="round"/>
<path d="M173.502 158.035C177.414 157.924 178.318 157.953 179.502 158.035C181.556 157.93 182.706 157.861 185.002 159.035C185.88 161.736 185.961 163.278 186.002 166.035V173.035C185.935 178.278 185.655 179.561 185.002 181.035C183.657 183.1 182.898 183.894 181.502 185.035C175.676 185.579 174.523 185.387 172.502 185.035" stroke="#2101AE" stroke-width="3" stroke-linecap="round"/>
<path d="M438.49 82.0345C438.06 80.598 437.987 79.6061 438.49 77.5345C439.05 73.6635 439.394 73.4808 439.997 72.5343C442.411 70.5272 443.877 70.1176 446.497 70.5344C449.178 70.7565 449.442 71.4972 451.497 73.5343C453.042 76.1084 453.117 81.3956 453.117 81.3956C453.117 81.3956 453.116 86.8955 451.118 88.8956C449.12 90.8957 443.499 94.5346 442.496 95.5345C441.493 96.5344 441.49 98.0346 441.49 101.535C441.49 105.034 441.49 106.534 441.49 106.534" stroke="#1200A0" stroke-width="3" stroke-linecap="round"/>
<path d="M480.104 69.5823C477.023 69.4277 475.446 69.2875 471.12 69.5823C471.12 69.5823 467.121 71.5351 466.121 72.9534C465.121 74.3716 463.621 77.9534 463.621 77.9534C463.607 81.4687 463.618 83.4385 463.621 86.9534C463.736 88.4913 463.99 90.0173 464.499 93.0346C465.098 94.9703 465.609 95.9578 467.121 97.4534C470.515 98.2262 471.839 97.9786 474.12 97.4534C476.071 95.729 475.501 96.0344 476.104 92.4534C476.707 88.8724 476.091 85.6075 476.104 84.5823" stroke="#1200A6" stroke-width="3" stroke-linecap="round"/>
<path d="M414.482 92.9871C413.024 89.9721 412.735 88.1091 414.482 84.037C417.846 81.6836 418.482 80.0366 423.483 81.0343C428.484 82.0321 427.305 80.8403 430.481 85.0364C433.657 89.2324 432.76 95.5822 432.001 98.0347C431.242 100.487 427.483 104.037 427.483 104.037C425.035 104.367 423.09 104.512 417.483 104.037C415.053 104.899 414.252 106.112 413.483 109.037C412.756 111.771 412.713 113.303 413.483 116.037C414.178 117.905 414.771 118.802 416.483 120.037C419.216 120.818 420.749 121.255 423.483 122.037C425.793 128.109 424.654 130.456 418.482 132.987" stroke="#2000A0" stroke-width="3" stroke-linecap="round"/>
<path d="M275.799 191.583C275.799 191.583 274.009 191.584 284.504 191.583C294.999 191.583 289.001 173.535 292.5 167.034C295.676 161.133 305.148 161.699 313.499 163.838C315.169 164.266 316.837 164.891 318.056 166.11C320.308 168.364 320.872 171.527 321 178.035C319.662 190.242 321 195.535 323.5 197.535C323.99 197.928 324.452 198.237 324.899 198.468C328.39 200.267 331.452 195.618 332.097 191.744C332.742 187.864 332.875 183.161 332.976 176.62C332.993 175.568 333.059 174.507 333.297 173.482C333.621 172.086 334.141 170.993 335.67 169.88C337.115 168.829 338.89 168.291 340.677 168.255C344.505 168.178 346.189 169.61 352 167.535C358.463 165.228 359.396 159.951 361.851 150.488C362.273 148.86 362.882 147.166 364.364 146.371C366.779 145.077 370.371 144.672 371.501 142.035C373.001 138.535 370.001 127.035 374.498 124.535C378.995 122.035 389.549 123.321 397.999 124.535C400.136 124.932 401.605 125.495 402.79 126.635C404.729 128.501 405.047 131.422 405.058 134.114C405.072 137.457 404.973 139.614 404.782 141.309C404.465 144.127 403.339 146.979 401.035 148.631C399.652 149.623 397.933 150.218 395.23 150.438C393.424 150.585 391.597 150.334 389.889 149.73C386.753 148.622 384.877 147.207 384.235 143.888C383.751 141.381 384.274 138.647 385.911 136.688C387.45 134.847 389.305 134.609 392.499 135.535" stroke="url(#paint24_linear_862_1102)" stroke-width="3" stroke-linecap="round"/>
<path d="M309.5 124.034C309.5 124.034 311.583 142.947 306.582 148.948C301.58 154.948 292.442 146.948 284.442 152.948C276.442 158.947 286.083 173.259 276.499 178.034" stroke="#060DAB" stroke-width="3" stroke-linecap="round"/>
<path d="M276.373 68.7157C280.003 73.5343 289.004 70.5338 294.001 73.5343C298.998 76.5348 293.003 90.0339 299.497 93.0352C305.991 96.0364 312.737 94.4115 314.38 98.0352C314.861 102.566 314.24 106.611 314.373 113.716" stroke="url(#paint25_linear_862_1102)" stroke-width="3" stroke-linecap="round"/>
<path d="M353 49.0342C353.427 53.0368 354.214 54.4046 353 61.0343C353 61.0343 351.509 66.0344 349.5 67.5344C347.492 69.0343 346.148 70.277 344 72.0344C343.186 73.3523 342.635 74.5802 342 77.5343C341.586 79.6731 341.349 80.8781 341.5 83.5344C341.73 85.6622 342.114 87.0655 343.5 90.0343C344.352 91.6985 345.468 92.5665 347.492 94.1109" stroke="url(#paint26_linear_862_1102)" stroke-width="3" stroke-linecap="round"/>
<path d="M390.001 56.0341C386.494 56.9021 384.562 56.7157 381 55.0344C377.774 50.9483 376.802 49.0134 375 45.5344C373.63 43.5609 372.4 43.2211 370 43.0344C366.554 43.2955 365.517 44.0295 364 45.5344C362.793 48.5511 362.768 50.7879 363 55.0344L363 73.0351" stroke="#340096" stroke-width="3" stroke-linecap="round"/>
<path d="M370.417 19.2177C370.461 23.8267 377.883 24.6935 382.476 28.4631C387.068 32.2327 384.178 37.7723 384.417 44.2177" stroke="#2000A0" stroke-width="3" stroke-linecap="round"/>
<path d="M337.422 19.4221L337.922 27.4221C338.358 32.5847 339.512 33.6858 341.419 35.9221C347.285 37.5063 350.58 37.455 356.422 36.9221C359.121 36.4577 360.258 35.6388 361.922 33.4221C362.144 30.8163 362.005 29.2178 360.922 25.9221C359.06 24.4032 357.881 23.7043 355.422 22.922C353.141 23.0886 351.902 23.2075 348.922 22.922C346.879 21.6935 346.388 21.0497 345.922 19.922" stroke="url(#paint27_linear_862_1102)" stroke-width="3" stroke-linecap="round"/>
<path d="M277.999 24.0343C280.675 24.1296 281.991 24.3677 284.499 25.0343C287.441 25.8698 288.684 26.4303 290.497 27.5339C292.186 31.1303 292.555 32.9609 292.502 36.0343C292.783 40.0993 293.058 42.9073 292.502 47.0344C292.502 50.3539 292.002 51.7148 292.002 55.0343C290.829 57.0773 289.908 58.1786 287.502 60.0343C285.546 60.2914 284.46 60.3796 282.502 60.0343" stroke="url(#paint28_linear_862_1102)" stroke-width="3" stroke-linecap="round"/>
<path d="M310.313 178.426C308.448 177.93 307.399 177.867 305.5 179.534C304.198 181.01 303.853 181.606 303.5 182.534C302.571 188.681 302.886 191.691 303.5 197.034C302.967 200.703 302.155 201.845 300.5 203.534C297.585 204.961 295.944 205.297 293 204.534C289.518 204.726 290.5 203.534 284 203.534C277.5 203.534 276.313 205.426 276.313 205.426" stroke="#1105AF" stroke-width="3" stroke-linecap="round"/>
<path d="M401.988 160.033C404.967 159.973 406.602 160.058 408.99 163.033C410.394 166.863 410.506 172.33 410.492 183.033C410.457 187.72 410.475 190.347 410.496 195.034C410.496 195.034 410.496 195.034 410.49 199.034C410.484 203.034 405.491 203.909 401.99 206.533C400.29 208.022 401.999 215.535 399.499 216.535C397 217.534 382.247 217.678 371.49 217.534" stroke="url(#paint29_linear_862_1102)" stroke-width="3" stroke-linecap="round"/>
<path d="M437.413 167.733C432.162 167.024 428.519 168.537 426.01 170.036C423.5 171.534 424.091 170.84 423 175.034C421.236 180.098 421.447 186.581 423.001 192.036C426.127 195.964 425.596 196.695 428.01 197.035C434.618 197.77 438.332 197.74 444.51 197.035C449.66 196.735 451.207 196.964 455.5 198.648C457.837 200.105 458.99 201.761 460 204.648C461.01 207.534 460.453 208.695 461.01 211.035C461.319 213.651 461.651 213.818 463.01 216.431C466.231 218.726 467.935 218.185 471.01 217.733L475.413 217.733" stroke="url(#paint30_linear_862_1102)" stroke-width="3" stroke-linecap="round"/>
<path d="M463.563 188.784C461.845 188.429 460.979 187.799 459.502 185.535C458.366 183.41 457.976 182.117 458.002 179.535L458.002 164.034C458.509 161.496 458.992 160.153 461.999 158.534C464.354 157.635 465.664 157.535 467.997 157.534C470.168 157.698 471.482 158.156 474.56 161.533C475.021 162.596 475.311 162.994 475.502 165.535L475.502 170.035" stroke="#21009F" stroke-width="3" stroke-linecap="round"/>
<path d="M482.503 167.534C481.797 160.72 481.231 156.544 482.502 154.035C484.278 152.205 485.416 151.514 487.502 150.535C491.035 149.609 496 150.535 497.502 150.535C499.003 150.535 500.276 149.074 500.002 145.534C500.002 145.534 500.002 137.534 500.002 134.534C500.002 131.534 503 130.534 503 130.534" stroke="#0C09A7" stroke-width="3" stroke-linecap="round"/>
<path d="M524.5 167.534C525.203 158.823 526.326 155.458 524.5 153.034C522.012 151.7 521.43 150.932 518.553 150.8C516.5 150.8 514.5 150.8 511.5 150.8C508.5 150.8 507.756 150.009 507.995 145.532C507.995 145.532 506.939 137.941 506.825 134.265C506.711 130.589 502.5 130.534 502.5 130.534" stroke="#2B009F" stroke-width="3" stroke-linecap="round"/>
<path d="M313.386 194.034C313.386 194.034 312.723 215.292 309.368 217.205C306.014 219.117 289.897 217.688 277 217.972" stroke="url(#paint31_linear_862_1102)" stroke-width="3" stroke-linecap="round"/>
<path d="M425.002 19.0355C424.657 24.2168 425.191 27.0542 427.002 32.0355C430.674 34.8452 432.05 35.3827 434.002 35.5355C437.593 34.3641 439.316 34.3604 442.502 35.5355C444.098 36.996 444.783 38.1119 445.502 40.5355C444.626 49.3799 445.443 52.156 447.666 55.9054C449.5 58.4441 451.062 59.0982 454.002 60.0355C457.508 61.6025 460.316 60.5679 463.499 60.0355C467.408 58.9763 469.233 57.8738 470.999 55.9054C472.499 54.535 475.416 51.2846 475.999 49.535C477.499 45.035 477.499 44.5599 477.499 42.535C477.499 39.035 477.499 37.535 476.499 34.0352C474.101 30.3347 472.161 24.738 468.003 25.5344C468.694 29.3571 468.302 32.5627 467.5 38.5344C465.425 44.4224 464.191 45.0102 462 46.0344C458.245 48.4451 456.435 47.9261 454.002 48.035" stroke="url(#paint32_linear_862_1102)" stroke-width="3" stroke-linecap="round"/>
<path d="M312.49 83.0361C318.18 83.1963 318.313 82.9794 327.993 83.5344C330.171 83.8158 330.846 84.7812 331.709 86.4695C331.899 86.8408 332.006 87.2493 332.017 87.6663C332.172 93.6562 330.538 100.551 331.993 101.034C333.5 101.534 336.5 101.034 337.994 102.034C339.416 102.986 341.66 105.294 342.826 107.673C342.942 107.911 343.015 108.167 343.052 108.43C343.842 114.151 342.994 120.071 342.994 121.679C342.994 123.323 342.994 127.034 344.994 129.534C346.994 132.034 348.994 132.534 348.994 132.534C348.994 132.534 350.488 133.034 353.494 133.034C356.5 133.034 358.988 133.534 360.494 133.034C362 132.534 363.488 131.534 363.494 129.034C363.5 126.534 362.988 123.39 360.494 122.534C358 121.679 352.494 122.534 352.494 122.534" stroke="url(#paint33_linear_862_1102)" stroke-width="3" stroke-linecap="round"/>
<path d="M395.001 36.0345C394.952 36.8615 395.583 37.5713 396.41 37.62C397.237 37.6686 397.947 37.0376 397.995 36.2106L396.498 36.1226L395.001 36.0345ZM397.498 19.1226L396.001 19.0345L395.001 36.0345L396.498 36.1226L397.995 36.2106L398.995 19.2106L397.498 19.1226Z" fill="#26019C"/>
<line x1="306.5" y1="20.5344" x2="306.5" y2="29.5344" stroke="url(#paint34_linear_862_1102)" stroke-width="3" stroke-linecap="round"/>
<path d="M335.499 210.034C335.499 210.034 340.306 207.248 343 204.535C346.354 199.571 346.268 198.825 346.561 197.035C347.013 194.615 347.223 192.998 347.499 189.534L347.5 183.535" stroke="url(#paint35_linear_862_1102)" stroke-width="3" stroke-linecap="round"/>
<path d="M321.92 217.542L344.004 218.535C348.49 218.276 349 217.542 350.001 216.534C351.003 215.527 350.758 211.606 352.001 210.541C354.367 209.436 357.37 209.796 362.92 210.542" stroke="url(#paint36_linear_862_1102)" stroke-width="3" stroke-linecap="round"/>
<line x1="419.5" y1="207.534" x2="447.5" y2="207.534" stroke="url(#paint37_linear_862_1102)" stroke-width="3" stroke-linecap="round"/>
<line x1="411.5" y1="216.534" x2="435.5" y2="216.534" stroke="url(#paint38_linear_862_1102)" stroke-width="3" stroke-linecap="round"/>
<line x1="221.5" y1="23.5" x2="245.5" y2="23.5" stroke="url(#paint39_linear_862_1102)" stroke-width="3" stroke-linecap="round"/>
<path d="M519.505 139.33C519.503 131.534 521.183 117.529 517.503 118.534C514.5 115.534 500.5 112.534 489.5 118.534C488.947 120.803 487.637 124.569 487.409 128.036L487.409 139.33" stroke="#1B019F" stroke-width="3" stroke-linecap="round"/>
<path d="M330.081 117.787C328.86 119.892 328.08 122.424 327.708 125.059C327.143 129.065 327.491 133.502 328.832 137.473C330.172 141.439 332.545 145.055 336.123 147.224C339.065 149.007 342.686 149.729 346.939 149.008C345.744 150.814 343.788 152.531 341.422 153.855C337.984 155.778 334.166 156.598 331.468 155.893C322.902 153.652 318.082 145.101 318.528 133.552C320.004 127.434 321.689 123.468 323.943 121.018C325.529 119.295 327.477 118.237 330.081 117.787Z" stroke="#BE0080" stroke-width="3"/>
<path d="M506.15 102.02L506.565 102.224L506.989 102.04L517.756 97.3879C521.763 97.0535 524 96.7824 527.714 97.2405C527.567 97.677 527.406 98.0669 527.197 98.4592C526.832 99.1455 526.3 99.8839 525.402 100.904C524.552 101.783 523.9 102.364 523.152 102.811C522.407 103.256 521.514 103.6 520.151 103.923L520.125 103.929L520.099 103.937C517.319 104.756 515.324 104.887 511.388 104.84L506.973 103.028L506.565 102.861L506.168 103.047L502.294 104.864C500.789 105.053 498.779 105.057 497.087 105.004C496.223 104.977 495.457 104.936 494.908 104.903C494.634 104.886 494.414 104.871 494.264 104.86C494.23 104.857 494.199 104.855 494.172 104.853C490.366 103.434 488.854 102.686 487.921 101.089L487.92 101.087L487.079 99.6799C486.829 99.2621 486.61 98.8902 486.428 98.5481C486.316 98.338 486.228 98.1568 486.16 98.0012C489.279 96.9386 491.355 96.8392 494.915 96.4856L506.15 102.02ZM523.66 76.2493C524.625 76.1067 525.61 76.1392 526.85 76.428C526.838 80.1842 526.587 82.498 525.213 86.551C522.436 91.1653 520.53 92.7883 516.992 95.5393L507.529 99.6272L507.284 93.8538L511.992 86.6399L512.008 86.6477L514.835 81.0588L514.885 80.9592C516.23 79.5533 517.287 78.7957 519.657 77.5051C521.306 76.8519 522.493 76.4218 523.66 76.2493ZM486.169 76.6477C488.097 76.6514 489.396 76.7622 491.47 77.1086V77.1096C493.416 77.4746 494.648 77.9177 495.665 78.4768C496.655 79.0212 497.478 79.6934 498.61 80.6233L505.272 93.8167V99.3577L495.695 94.6399C494.491 93.3969 493.461 92.5403 492.559 91.7004C491.616 90.8232 490.703 89.8701 489.603 88.2893C488.449 86.6323 487.975 85.9681 487.559 84.5149C487.149 83.0849 486.813 80.9439 486.169 76.6477ZM507.033 62.3059C508.331 63.6097 509.182 64.6601 509.803 65.7043C510.504 66.885 510.941 68.1075 511.369 69.7727L511.376 69.7981L511.385 69.8245C512.765 74.2053 513.082 76.4622 513.062 80.1311L510.321 85.5403L506.383 91.5764L500.368 79.6653C500.093 78.1118 500.001 76.8889 500.115 75.5979C500.233 74.2597 500.576 72.8006 501.222 70.7805C502.072 68.2068 502.904 66.4844 503.894 65.1653C504.738 64.0398 505.73 63.1671 507.033 62.3059Z" stroke="url(#paint40_linear_862_1102)" stroke-width="2"/>
<path d="M282.651 134.016L283.074 134.229L283.506 134.037L293.984 129.404C296.034 129.392 297.733 129.225 299.33 129.144C300.699 129.074 302.074 129.065 303.72 129.247C303.576 129.684 303.419 130.075 303.214 130.468C302.854 131.158 302.332 131.899 301.447 132.926C300.622 133.797 299.99 134.373 299.266 134.816C298.541 135.259 297.671 135.602 296.342 135.924L296.315 135.93L296.289 135.939C293.581 136.756 291.637 136.887 287.799 136.84L283.489 135.031L283.074 134.857L282.669 135.051L278.888 136.865C277.421 137.053 275.464 137.057 273.813 137.004C272.97 136.977 272.223 136.936 271.687 136.903C271.418 136.886 271.203 136.871 271.056 136.86C271.025 136.857 270.997 136.855 270.972 136.853C267.259 135.437 265.79 134.691 264.88 133.098L264.878 133.096L264.057 131.689C263.812 131.271 263.599 130.899 263.42 130.557C263.307 130.341 263.219 130.156 263.152 129.997C266.189 128.939 268.211 128.839 271.683 128.487L282.651 134.016ZM299.788 108.248C300.721 108.107 301.675 108.139 302.876 108.424C302.865 112.185 302.62 114.501 301.275 118.559C298.561 123.173 296.699 124.795 293.244 127.544L284.039 131.615L283.801 125.849L288.402 118.631L288.419 118.64L291.151 113.11L291.229 112.95C292.543 111.546 293.574 110.791 295.886 109.502C297.497 108.849 298.653 108.42 299.788 108.248ZM263.165 108.648C265.039 108.652 266.306 108.765 268.33 109.112C270.22 109.475 271.416 109.917 272.403 110.473C273.368 111.016 274.171 111.685 275.278 112.615L281.789 125.811V131.341L272.477 126.649C271.299 125.405 270.293 124.548 269.411 123.708C268.49 122.832 267.598 121.879 266.522 120.298C265.396 118.642 264.932 117.976 264.524 116.521C264.123 115.089 263.795 112.946 263.165 108.648ZM283.529 94.3176C284.786 95.6113 285.611 96.6567 286.214 97.6956C286.9 98.8772 287.329 100.1 287.747 101.767L287.753 101.792L287.761 101.818C289.11 106.201 289.422 108.461 289.401 112.134L286.718 117.555L282.899 123.542L277.042 111.673C276.773 110.117 276.683 108.891 276.795 107.596C276.911 106.255 277.246 104.795 277.877 102.775C278.709 100.2 279.521 98.4759 280.489 97.1565C281.309 96.039 282.27 95.1721 283.529 94.3176Z" stroke="url(#paint41_linear_862_1102)" stroke-width="2"/>
<path d="M497.659 205.38L498.005 205.517L498.356 205.395L510.853 201.046C513.454 201.039 515.46 200.882 517.369 200.804C518.998 200.738 520.616 200.728 522.613 200.908C522.465 201.24 522.302 201.545 522.099 201.852C521.679 202.485 521.065 203.174 520.016 204.132C519.035 204.948 518.271 205.499 517.384 205.926C516.491 206.356 515.424 206.684 513.823 206.99L513.802 206.993L513.779 206.998C510.495 207.778 508.136 207.898 503.518 207.852L498.342 206.142L498.006 206.031L497.675 206.156L493.138 207.868C491.358 208.053 488.98 208.056 486.999 208.006C485.993 207.981 485.102 207.943 484.463 207.911C484.144 207.896 483.888 207.881 483.712 207.87C483.65 207.867 483.598 207.863 483.557 207.861C481.382 207.209 479.819 206.707 478.64 206.157C477.466 205.611 476.734 205.047 476.194 204.303L476.192 204.3C475.473 203.316 474.888 202.57 474.466 201.934C474.387 201.815 474.32 201.708 474.262 201.611C477.933 200.606 480.386 200.517 484.554 200.182L497.659 205.38ZM517.76 181.305C518.95 181.163 520.159 181.2 521.67 181.49C521.661 183.112 521.591 184.418 521.363 185.727C521.105 187.212 520.638 188.737 519.794 190.744C516.579 195.042 514.367 196.559 510.243 199.141L498.956 203.069L498.675 197.738L504.102 191.041L504.117 191.051L507.445 185.75C509.017 184.428 510.26 183.713 513.035 182.496C514.949 181.886 516.36 181.471 517.76 181.305ZM474.213 181.672C476.547 181.671 478.084 181.775 480.563 182.109V182.11C482.846 182.454 484.306 182.876 485.516 183.411C486.686 183.93 487.655 184.567 488.969 185.436L496.656 197.696V202.83L485.224 198.296C483.822 197.129 482.627 196.331 481.571 195.539C480.473 194.717 479.414 193.825 478.14 192.352C476.796 190.797 476.265 190.193 475.794 188.871C475.33 187.567 474.947 185.614 474.213 181.672ZM498.577 168.217C500.173 169.495 501.201 170.508 501.94 171.51C502.744 172.599 503.243 173.723 503.734 175.262L503.744 175.292L503.756 175.323C505.337 179.364 505.705 181.44 505.687 184.79L502.54 189.792L497.76 195.69L490.643 184.341C490.332 182.921 490.232 181.815 490.359 180.654C490.493 179.434 490.883 178.092 491.632 176.207L491.631 176.206C492.609 173.826 493.564 172.235 494.704 171.012C495.729 169.912 496.948 169.065 498.577 168.217Z" stroke="url(#paint42_linear_862_1102)" stroke-width="2"/>
<path d="M380.649 198.024L381.057 198.22L381.473 198.044L392.486 193.39C396.738 193.054 398.913 192.781 402.706 193.242C402.557 193.675 402.393 194.062 402.181 194.451C401.805 195.14 401.259 195.88 400.334 196.906C399.469 197.779 398.804 198.359 398.04 198.806C397.274 199.253 396.356 199.597 394.96 199.921L394.909 199.935C392.059 200.756 390.012 200.887 385.981 200.84L381.456 199.025L381.057 198.865L380.666 199.043L376.696 200.864C375.153 201.054 373.093 201.057 371.36 201.004C370.476 200.977 369.693 200.937 369.131 200.903C368.85 200.886 368.625 200.871 368.471 200.86C368.434 200.857 368.401 200.854 368.372 200.852C364.473 199.431 362.92 198.681 361.963 197.081L361.962 197.078L361.102 195.672C360.846 195.254 360.622 194.882 360.436 194.54C360.324 194.336 360.235 194.159 360.167 194.006C363.369 192.939 365.498 192.839 369.147 192.485L380.649 198.024ZM398.532 172.249C399.528 172.105 400.545 172.139 401.823 172.431C401.812 176.182 401.556 178.493 400.153 182.539C397.311 187.157 395.362 188.781 391.74 191.534L382.02 195.641L381.769 189.859L386.581 182.648L386.598 182.656L389.488 177.067L389.539 176.967C390.916 175.56 391.999 174.801 394.424 173.51C396.112 172.856 397.331 172.423 398.532 172.249ZM360.174 172.648C362.166 172.651 363.501 172.762 365.644 173.113C367.627 173.477 368.886 173.922 369.927 174.482C370.942 175.028 371.786 175.701 372.945 176.631L379.756 189.82V195.373L369.917 190.635C368.685 189.391 367.632 188.535 366.707 187.694C365.742 186.816 364.808 185.862 363.683 184.281C362.502 182.623 362.019 181.96 361.594 180.509C361.175 179.081 360.832 176.942 360.174 172.648ZM381.539 158.294C382.878 159.607 383.753 160.663 384.391 161.712C385.108 162.892 385.555 164.113 385.992 165.778L385.999 165.804L386.008 165.83C387.418 170.207 387.743 172.462 387.723 176.124L384.925 181.527L380.865 187.61L374.694 175.659C374.414 174.108 374.32 172.888 374.437 171.6C374.557 170.264 374.907 168.807 375.567 166.787C376.437 164.215 377.286 162.493 378.299 161.174C379.169 160.041 380.192 159.162 381.539 158.294Z" stroke="url(#paint43_linear_862_1102)" stroke-width="2"/>
<path d="M456.15 141.02L456.565 141.224L456.989 141.04L467.756 136.388C471.763 136.054 474 135.782 477.714 136.24C477.567 136.677 477.406 137.067 477.197 137.459C476.832 138.145 476.3 138.884 475.402 139.904C474.552 140.783 473.9 141.364 473.152 141.811C472.407 142.256 471.514 142.6 470.151 142.923L470.125 142.929L470.099 142.937C467.319 143.756 465.324 143.887 461.388 143.84L456.973 142.028L456.565 141.861L456.168 142.047L452.294 143.864C450.789 144.053 448.779 144.057 447.087 144.004C446.223 143.977 445.457 143.936 444.908 143.903C444.634 143.886 444.414 143.871 444.264 143.86C444.23 143.857 444.199 143.855 444.172 143.853C440.366 142.434 438.854 141.686 437.921 140.089L437.92 140.087L437.079 138.68C436.829 138.262 436.61 137.89 436.428 137.548C436.316 137.338 436.228 137.157 436.16 137.001C439.279 135.939 441.355 135.839 444.915 135.486L456.15 141.02ZM473.66 115.249C474.625 115.107 475.61 115.139 476.85 115.428C476.838 119.184 476.587 121.498 475.213 125.551C472.436 130.165 470.53 131.788 466.992 134.539L457.529 138.627L457.284 132.854L461.992 125.64L462.008 125.648L464.835 120.059L464.885 119.959C466.23 118.553 467.287 117.796 469.657 116.505C471.306 115.852 472.493 115.422 473.66 115.249ZM436.169 115.648C438.097 115.651 439.396 115.762 441.47 116.109V116.11C443.416 116.475 444.648 116.918 445.665 117.477C446.655 118.021 447.478 118.693 448.61 119.623L455.272 132.817V138.358L445.695 133.64C444.491 132.397 443.461 131.54 442.559 130.7C441.616 129.823 440.703 128.87 439.603 127.289C438.449 125.632 437.975 124.968 437.559 123.515C437.149 122.085 436.813 119.944 436.169 115.648ZM457.033 101.306C458.331 102.61 459.182 103.66 459.803 104.704C460.504 105.885 460.941 107.108 461.369 108.773L461.376 108.798L461.385 108.824C462.765 113.205 463.082 115.462 463.062 119.131L460.321 124.54L456.383 130.576L450.368 118.665C450.093 117.112 450.001 115.889 450.115 114.598C450.233 113.26 450.576 111.801 451.222 109.781C452.072 107.207 452.904 105.484 453.894 104.165C454.738 103.04 455.73 102.167 457.033 101.306Z" stroke="url(#paint44_linear_862_1102)" stroke-width="2"/>
<path d="M320.15 65.0198L320.565 65.2239L320.989 65.0403L331.727 60.4006C333.741 60.3511 334.148 59.634 341.696 60.2922C341.554 60.7079 341.398 61.0825 341.197 61.4592C340.832 62.1455 340.3 62.8839 339.402 63.9036C338.552 64.7827 337.9 65.3641 337.152 65.8108C336.407 66.2559 335.514 66.6 334.151 66.9231L334.125 66.929L334.099 66.9368C331.319 67.7562 329.324 67.8872 325.388 67.8401L320.973 66.0276L320.565 65.8606L320.168 66.0471L316.294 67.8635C314.789 68.053 312.779 68.0572 311.087 68.0042C310.223 67.977 309.457 67.9365 308.908 67.9026C308.634 67.8857 308.414 67.8705 308.264 67.8596C308.23 67.8571 308.199 67.8548 308.172 67.8528C304.366 66.4344 302.854 65.6856 301.921 64.0891L301.92 64.0872L301.079 62.6799C300.829 62.2621 300.61 61.8902 300.428 61.5481C300.316 61.338 300.228 61.1568 300.16 61.0012C303.279 59.9386 305.355 59.8392 308.915 59.4856L320.15 65.0198ZM337.66 39.2493C338.625 39.1067 339.61 39.1392 340.85 39.428C340.838 43.1842 340.587 45.498 339.213 49.551C336.436 54.1653 334.53 55.7883 330.992 58.5393L321.529 62.6272L321.284 56.8538L325.992 49.6399L326.008 49.6477L328.835 44.0588L328.885 43.9592C330.23 42.5533 331.287 41.7957 333.657 40.5051C335.306 39.8519 336.493 39.4218 337.66 39.2493ZM300.169 39.6477C302.097 39.6514 303.396 39.7622 305.47 40.1086V40.1096C307.416 40.4746 308.648 40.9177 309.665 41.4768C310.655 42.0212 311.478 42.6934 312.61 43.6233L319.272 56.8167V62.3577L309.695 57.6399C308.491 56.3969 307.461 55.5403 306.559 54.7004C305.616 53.8232 304.703 52.8701 303.603 51.2893C302.449 49.6323 301.975 48.9681 301.559 47.5149C301.149 46.0849 300.813 43.9439 300.169 39.6477ZM321.033 25.3059C322.331 26.6097 323.182 27.6601 323.803 28.7043C324.504 29.885 324.941 31.1075 325.369 32.7727L325.376 32.7981L325.385 32.8245C326.765 37.2053 327.082 39.4622 327.062 43.1311L324.321 48.5403L320.383 54.5764L314.368 42.6653C314.093 41.1118 314.001 39.8889 314.115 38.5979C314.233 37.2597 314.576 35.8006 315.222 33.7805C316.072 31.2068 316.904 29.4844 317.894 28.1653C318.738 27.0398 319.73 26.1671 321.033 25.3059Z" stroke="url(#paint45_linear_862_1102)" stroke-width="2"/>
<path d="M380.14 107.04L380.494 107.194L380.86 107.069L394.541 102.392C395.74 102.3 396.475 102.201 397.039 102.115C397.629 102.026 397.953 101.966 398.428 101.938C399.316 101.886 400.703 101.953 404.646 102.294C404.49 102.691 404.318 103.05 404.099 103.411C403.682 104.099 403.074 104.842 402.041 105.873C401.082 106.745 400.336 107.331 399.473 107.784C398.604 108.241 397.566 108.591 396.002 108.917L395.979 108.922L395.357 109.077C392.451 109.775 390.165 109.886 385.938 109.84L380.877 108.012L380.513 107.88L380.155 108.029L375.719 109.859C373.983 110.054 371.665 110.058 369.728 110.004C368.743 109.977 367.87 109.937 367.244 109.903C366.931 109.886 366.68 109.87 366.508 109.859C366.452 109.855 366.405 109.851 366.366 109.849C362.012 108.422 360.246 107.658 359.172 106.041L359.17 106.038L358.214 104.631C357.93 104.214 357.682 103.842 357.475 103.5C357.365 103.319 357.276 103.161 357.205 103.023C360.82 101.935 363.216 101.84 367.312 101.481L380.14 107.04ZM399.895 81.2512C401.048 81.1012 402.223 81.1397 403.696 81.4495C403.682 85.1807 403.394 87.4799 401.84 91.512C400.197 93.927 399.196 95.4811 398.09 96.8049C397.017 98.0879 395.842 99.1514 393.876 100.505L381.472 104.745L381.188 98.884L386.527 91.6858L386.544 91.6956L389.757 86.1038L389.812 86.0081C391.353 84.5902 392.567 83.825 395.281 82.5247C397.158 81.87 398.533 81.4283 399.895 81.2512ZM357.194 81.6467C359.475 81.6461 360.977 81.7562 363.399 82.1125V82.1135C365.63 82.4816 367.053 82.9311 368.231 83.5012C369.375 84.0545 370.323 84.7363 371.612 85.6682L379.173 98.842V104.442L368.025 99.6096C366.653 98.361 365.483 97.5061 364.449 96.6594C363.373 95.7784 362.333 94.8218 361.081 93.2395C359.767 91.5786 359.235 90.9199 358.767 89.4807C358.304 88.0608 357.925 85.9331 357.194 81.6467ZM381.065 67.2483C382.609 68.6025 383.61 69.6813 384.333 70.7522C385.128 71.9291 385.622 73.1453 386.106 74.804L386.114 74.8323L386.125 74.8606C387.686 79.2218 388.047 81.4658 388.025 85.1028L384.922 90.4934L380.279 96.7532L373.322 84.6282C373.013 83.0882 372.912 81.8812 373.04 80.6096C373.173 79.2832 373.56 77.8314 374.295 75.8088L374.294 75.8079C375.257 73.2469 376.198 71.5318 377.322 70.2141C378.319 69.0458 379.498 68.1449 381.065 67.2483Z" stroke="url(#paint46_linear_862_1102)" stroke-width="2"/>
<path d="M413.714 68.7834L414.13 68.9885L414.556 68.804L423.549 64.9016C425.316 64.8908 426.778 64.7506 428.136 64.6829C429.256 64.627 430.376 64.6164 431.702 64.7493C431.598 65.0362 431.483 65.3005 431.343 65.5657C431.042 66.1327 430.601 66.7483 429.845 67.6096C429.14 68.3404 428.607 68.816 428 69.1799C427.392 69.5446 426.657 69.8293 425.521 70.0999L425.469 70.1135C423.162 70.7965 421.506 70.9089 418.224 70.8704L414.538 69.3518L414.131 69.1838L413.731 69.3713L410.499 70.8938C409.249 71.0492 407.582 71.0536 406.169 71.009C405.445 70.9862 404.802 70.9516 404.342 70.9231C404.112 70.9089 403.928 70.8962 403.802 70.887C403.782 70.8855 403.763 70.8833 403.746 70.8821C400.554 69.6866 399.345 69.0708 398.595 67.7815L398.594 67.7795L397.886 66.5901C397.677 66.2391 397.495 65.928 397.342 65.6409C397.284 65.5317 397.235 65.4324 397.192 65.343C399.69 64.5093 401.401 64.4191 404.307 64.1301L413.714 68.7834ZM428.533 47.0364C429.29 46.9241 430.064 46.9438 431.032 47.1575C431.018 50.2381 430.799 52.1674 429.671 55.5139C427.356 59.3729 425.772 60.7316 422.818 63.0383L415.095 66.3889L414.899 61.7922L418.841 55.7258L418.854 55.7327L421.212 51.0491L421.262 50.9495C422.37 49.7891 423.245 49.1601 425.216 48.0823C426.597 47.533 427.575 47.1786 428.533 47.0364ZM397.167 47.3752C398.68 47.3852 399.746 47.4816 401.411 47.761V47.762C403.036 48.0679 404.054 48.4379 404.891 48.8997C405.701 49.3472 406.377 49.8984 407.317 50.6741L412.888 61.7522V66.1428L405.092 62.2874C404.083 61.2434 403.214 60.5156 402.467 59.8176C401.68 59.0828 400.92 58.2866 400.002 56.9622C399.031 55.562 398.647 55.0204 398.305 53.8206C397.969 52.644 397.692 50.8875 397.167 47.3752ZM414.508 35.3118C415.54 36.3629 416.221 37.2132 416.719 38.0549C417.298 39.0344 417.663 40.0513 418.021 41.4504L418.026 41.4768L418.035 41.5022C419.187 45.1728 419.453 47.063 419.438 50.1223L419.323 50.3538L417.156 54.6467L413.998 59.509L409.076 49.72C408.849 48.4266 408.775 47.4131 408.869 46.3459C408.967 45.2324 409.252 44.013 409.793 42.3127C410.506 40.147 411.198 38.7096 412.017 37.6145C412.69 36.714 413.477 36.0077 414.508 35.3118Z" stroke="url(#paint47_linear_862_1102)" stroke-width="2"/>
<path d="M451.465 18.8486C447.582 28.2609 449.577 31.1462 457.465 33.8486" stroke="url(#paint48_linear_862_1102)" stroke-width="3"/>
<path d="M520.5 63.0344C521.115 58.2969 520.594 55.4841 517 50.0344C511.952 47.7794 508.792 47.6616 503 48.0344C497.577 48.1255 494.933 48.5686 491.5 50.0344C488.34 51.6132 487.141 53.7228 487.5 63.0344" stroke="#1701A4" stroke-width="3" stroke-linecap="round"/>
<path d="M435.502 158.035C439.414 157.924 440.318 157.953 441.502 158.035C443.556 157.93 444.706 157.861 447.002 159.035C447.88 161.736 447.961 163.278 448.002 166.035V173.035C447.935 178.278 447.655 179.561 447.002 181.035C445.657 183.1 444.898 183.894 443.502 185.035C437.676 185.579 436.523 185.387 434.502 185.035" stroke="#2101AE" stroke-width="3" stroke-linecap="round"/>
<line x1="237.5" y1="32.5" x2="265.5" y2="32.5" stroke="url(#paint49_linear_862_1102)" stroke-width="3" stroke-linecap="round"/>
<defs>
<linearGradient id="paint0_linear_862_1102" x1="70.541" y1="144.072" x2="90.7201" y2="187.366" gradientUnits="userSpaceOnUse">
<stop stop-color="#24009C"/>
<stop offset="1" stop-color="#550081"/>
</linearGradient>
<linearGradient id="paint1_linear_862_1102" x1="18.3966" y1="65.3176" x2="56.3966" y2="110.318" gradientUnits="userSpaceOnUse">
<stop stop-color="#3B00A6"/>
<stop offset="0.315913" stop-color="#5B01B7"/>
<stop offset="1" stop-color="#1403AB"/>
</linearGradient>
<linearGradient id="paint2_linear_862_1102" x1="88.6922" y1="48.6752" x2="81.7158" y2="93.5234" gradientUnits="userSpaceOnUse">
<stop stop-color="#2D0190"/>
<stop offset="0.534491" stop-color="#680194"/>
<stop offset="1" stop-color="#3000A4"/>
</linearGradient>
<linearGradient id="paint3_linear_862_1102" x1="100.329" y1="23.7084" x2="72.6744" y2="28.5424" gradientUnits="userSpaceOnUse">
<stop stop-color="#2500A2"/>
<stop offset="1" stop-color="#9900AF"/>
</linearGradient>
<linearGradient id="paint4_linear_862_1102" x1="22.6646" y1="23.3677" x2="26.3254" y2="59.9761" gradientUnits="userSpaceOnUse">
<stop stop-color="#7300A1"/>
<stop offset="0.478706" stop-color="#AE4C94"/>
<stop offset="1" stop-color="#2C09B0"/>
</linearGradient>
<linearGradient id="paint5_linear_862_1102" x1="152.821" y1="165.716" x2="118.653" y2="222.999" gradientUnits="userSpaceOnUse">
<stop stop-color="#22019C"/>
<stop offset="0.689082" stop-color="#880092"/>
<stop offset="1" stop-color="#3900C1"/>
</linearGradient>
<linearGradient id="paint6_linear_862_1102" x1="161.767" y1="171.51" x2="202.944" y2="225.69" gradientUnits="userSpaceOnUse">
<stop stop-color="#29009E"/>
<stop offset="0.321673" stop-color="#A6008E"/>
<stop offset="0.597089" stop-color="#88009A"/>
<stop offset="1" stop-color="#AA00A8"/>
</linearGradient>
<linearGradient id="paint7_linear_862_1102" x1="33.1931" y1="206.003" x2="42.6197" y2="220.332" gradientUnits="userSpaceOnUse">
<stop stop-color="#25009A"/>
<stop offset="1" stop-color="#3E0085"/>
</linearGradient>
<linearGradient id="paint8_linear_862_1102" x1="213.094" y1="29.8065" x2="170.5" y2="18.8017" gradientUnits="userSpaceOnUse">
<stop stop-color="#B40474"/>
<stop offset="1" stop-color="#3303C9"/>
</linearGradient>
<linearGradient id="paint9_linear_862_1102" x1="50.7506" y1="82.7685" x2="100.786" y2="131.553" gradientUnits="userSpaceOnUse">
<stop stop-color="#45019F"/>
<stop offset="0.559596" stop-color="#2B00A3"/>
<stop offset="1" stop-color="#29009E"/>
</linearGradient>
<linearGradient id="paint10_linear_862_1102" x1="42.5" y1="19.0344" x2="42.5" y2="31.0344" gradientUnits="userSpaceOnUse">
<stop stop-color="#9101B1"/>
<stop offset="1" stop-color="#2605BC"/>
</linearGradient>
<linearGradient id="paint11_linear_862_1102" x1="88.2797" y1="185.04" x2="74.4596" y2="210.554" gradientUnits="userSpaceOnUse">
<stop stop-color="#1C00B0"/>
<stop offset="1" stop-color="#7503AC"/>
</linearGradient>
<linearGradient id="paint12_linear_862_1102" x1="60.1552" y1="218.919" x2="101.155" y2="211.919" gradientUnits="userSpaceOnUse">
<stop stop-color="#7E00A2"/>
<stop offset="1" stop-color="#2D00A3"/>
</linearGradient>
<linearGradient id="paint13_linear_862_1102" x1="156" y1="209.534" x2="187" y2="209.534" gradientUnits="userSpaceOnUse">
<stop stop-color="#5A00B9"/>
<stop offset="1" stop-color="#2507C0"/>
</linearGradient>
<linearGradient id="paint14_linear_862_1102" x1="148" y1="218.534" x2="175" y2="218.534" gradientUnits="userSpaceOnUse">
<stop stop-color="#6E01A6"/>
<stop offset="0.37566" stop-color="#9C03BA"/>
<stop offset="1" stop-color="#7517A6"/>
</linearGradient>
<linearGradient id="paint15_linear_862_1102" x1="245" y1="61.0344" x2="245" y2="106.034" gradientUnits="userSpaceOnUse">
<stop stop-color="#5D01C7"/>
<stop offset="1" stop-color="#C6078B"/>
</linearGradient>
<linearGradient id="paint16_linear_862_1102" x1="21.5" y1="93.0344" x2="21.5" y2="138.034" gradientUnits="userSpaceOnUse">
<stop stop-color="#5D01C7"/>
<stop offset="1" stop-color="#C6078B"/>
</linearGradient>
<linearGradient id="paint17_linear_862_1102" x1="236.5" y1="167.034" x2="236.5" y2="209.034" gradientUnits="userSpaceOnUse">
<stop stop-color="#1501C4"/>
<stop offset="1" stop-color="#220AAA"/>
</linearGradient>
<linearGradient id="paint18_linear_862_1102" x1="127.755" y1="157.034" x2="116.283" y2="203.284" gradientUnits="userSpaceOnUse">
<stop stop-color="#2D02CE"/>
<stop offset="1" stop-color="#7401BB"/>
</linearGradient>
<linearGradient id="paint19_linear_862_1102" x1="195" y1="100.034" x2="195" y2="145.034" gradientUnits="userSpaceOnUse">
<stop stop-color="#5100C9"/>
<stop offset="1" stop-color="#6300BC"/>
</linearGradient>
<linearGradient id="paint20_linear_862_1102" x1="59" y1="24.0344" x2="59" y2="69.0344" gradientUnits="userSpaceOnUse">
<stop stop-color="#2201C9"/>
<stop offset="1" stop-color="#5C00BD"/>
</linearGradient>
<linearGradient id="paint21_linear_862_1102" x1="119" y1="66.0344" x2="119" y2="111.034" gradientUnits="userSpaceOnUse">
<stop stop-color="#2A00B0"/>
<stop offset="1" stop-color="#2109B4"/>
</linearGradient>
<linearGradient id="paint22_linear_862_1102" x1="152.5" y1="34.0344" x2="152.5" y2="72.0344" gradientUnits="userSpaceOnUse">
<stop stop-color="#0111C5"/>
<stop offset="1" stop-color="#4500BF"/>
</linearGradient>
<linearGradient id="paint23_linear_862_1102" x1="187.126" y1="19.784" x2="193.126" y2="34.784" gradientUnits="userSpaceOnUse">
<stop stop-color="#59009A"/>
<stop offset="1" stop-color="#8D0083"/>
</linearGradient>
<linearGradient id="paint24_linear_862_1102" x1="332.541" y1="144.072" x2="352.72" y2="187.366" gradientUnits="userSpaceOnUse">
<stop stop-color="#24009C"/>
<stop offset="1" stop-color="#550081"/>
</linearGradient>
<linearGradient id="paint25_linear_862_1102" x1="280.397" y1="65.3176" x2="318.397" y2="110.318" gradientUnits="userSpaceOnUse">
<stop stop-color="#3B00A6"/>
<stop offset="0.315913" stop-color="#5B01B7"/>
<stop offset="1" stop-color="#1403AB"/>
</linearGradient>
<linearGradient id="paint26_linear_862_1102" x1="350.692" y1="48.6752" x2="343.716" y2="93.5234" gradientUnits="userSpaceOnUse">
<stop stop-color="#2D0190"/>
<stop offset="0.534491" stop-color="#680194"/>
<stop offset="1" stop-color="#3000A4"/>
</linearGradient>
<linearGradient id="paint27_linear_862_1102" x1="362.329" y1="23.7084" x2="334.674" y2="28.5424" gradientUnits="userSpaceOnUse">
<stop stop-color="#2500A2"/>
<stop offset="1" stop-color="#9900AF"/>
</linearGradient>
<linearGradient id="paint28_linear_862_1102" x1="284.665" y1="23.3677" x2="288.325" y2="59.9761" gradientUnits="userSpaceOnUse">
<stop stop-color="#7300A1"/>
<stop offset="0.478706" stop-color="#AE4C94"/>
<stop offset="1" stop-color="#2C09B0"/>
</linearGradient>
<linearGradient id="paint29_linear_862_1102" x1="414.821" y1="165.716" x2="380.653" y2="222.999" gradientUnits="userSpaceOnUse">
<stop stop-color="#22019C"/>
<stop offset="0.689082" stop-color="#880092"/>
<stop offset="1" stop-color="#3900C1"/>
</linearGradient>
<linearGradient id="paint30_linear_862_1102" x1="423.767" y1="171.51" x2="464.944" y2="225.69" gradientUnits="userSpaceOnUse">
<stop stop-color="#29009E"/>
<stop offset="0.321673" stop-color="#A6008E"/>
<stop offset="0.597089" stop-color="#88009A"/>
<stop offset="1" stop-color="#AA00A8"/>
</linearGradient>
<linearGradient id="paint31_linear_862_1102" x1="295.193" y1="206.003" x2="304.62" y2="220.332" gradientUnits="userSpaceOnUse">
<stop stop-color="#25009A"/>
<stop offset="1" stop-color="#3E0085"/>
</linearGradient>
<linearGradient id="paint32_linear_862_1102" x1="475.094" y1="29.8065" x2="432.5" y2="18.8017" gradientUnits="userSpaceOnUse">
<stop stop-color="#B40474"/>
<stop offset="1" stop-color="#3303C9"/>
</linearGradient>
<linearGradient id="paint33_linear_862_1102" x1="312.751" y1="82.7685" x2="362.786" y2="131.553" gradientUnits="userSpaceOnUse">
<stop stop-color="#45019F"/>
<stop offset="0.559596" stop-color="#2B00A3"/>
<stop offset="1" stop-color="#29009E"/>
</linearGradient>
<linearGradient id="paint34_linear_862_1102" x1="304.5" y1="19.0344" x2="304.5" y2="31.0344" gradientUnits="userSpaceOnUse">
<stop stop-color="#9101B1"/>
<stop offset="1" stop-color="#2605BC"/>
</linearGradient>
<linearGradient id="paint35_linear_862_1102" x1="350.28" y1="185.04" x2="336.46" y2="210.554" gradientUnits="userSpaceOnUse">
<stop stop-color="#1C00B0"/>
<stop offset="1" stop-color="#7503AC"/>
</linearGradient>
<linearGradient id="paint36_linear_862_1102" x1="322.155" y1="218.919" x2="363.155" y2="211.919" gradientUnits="userSpaceOnUse">
<stop stop-color="#7E00A2"/>
<stop offset="1" stop-color="#2D00A3"/>
</linearGradient>
<linearGradient id="paint37_linear_862_1102" x1="418" y1="209.534" x2="449" y2="209.534" gradientUnits="userSpaceOnUse">
<stop stop-color="#5A00B9"/>
<stop offset="1" stop-color="#2507C0"/>
</linearGradient>
<linearGradient id="paint38_linear_862_1102" x1="410" y1="218.534" x2="437" y2="218.534" gradientUnits="userSpaceOnUse">
<stop stop-color="#6E01A6"/>
<stop offset="0.37566" stop-color="#9C03BA"/>
<stop offset="1" stop-color="#7517A6"/>
</linearGradient>
<linearGradient id="paint39_linear_862_1102" x1="220" y1="25.5" x2="247" y2="25.5" gradientUnits="userSpaceOnUse">
<stop stop-color="#6E01A6"/>
<stop offset="0.37566" stop-color="#9C03BA"/>
<stop offset="1" stop-color="#7517A6"/>
</linearGradient>
<linearGradient id="paint40_linear_862_1102" x1="507" y1="61.0344" x2="507" y2="106.034" gradientUnits="userSpaceOnUse">
<stop stop-color="#5D01C7"/>
<stop offset="1" stop-color="#C6078B"/>
</linearGradient>
<linearGradient id="paint41_linear_862_1102" x1="283.5" y1="93.0344" x2="283.5" y2="138.034" gradientUnits="userSpaceOnUse">
<stop stop-color="#5D01C7"/>
<stop offset="1" stop-color="#C6078B"/>
</linearGradient>
<linearGradient id="paint42_linear_862_1102" x1="498.5" y1="167.034" x2="498.5" y2="209.034" gradientUnits="userSpaceOnUse">
<stop stop-color="#1501C4"/>
<stop offset="1" stop-color="#220AAA"/>
</linearGradient>
<linearGradient id="paint43_linear_862_1102" x1="389.755" y1="157.034" x2="378.283" y2="203.284" gradientUnits="userSpaceOnUse">
<stop stop-color="#2D02CE"/>
<stop offset="1" stop-color="#7401BB"/>
</linearGradient>
<linearGradient id="paint44_linear_862_1102" x1="457" y1="100.034" x2="457" y2="145.034" gradientUnits="userSpaceOnUse">
<stop stop-color="#5100C9"/>
<stop offset="1" stop-color="#6300BC"/>
</linearGradient>
<linearGradient id="paint45_linear_862_1102" x1="321" y1="24.0344" x2="321" y2="69.0344" gradientUnits="userSpaceOnUse">
<stop stop-color="#2201C9"/>
<stop offset="1" stop-color="#5C00BD"/>
</linearGradient>
<linearGradient id="paint46_linear_862_1102" x1="381" y1="66.0344" x2="381" y2="111.034" gradientUnits="userSpaceOnUse">
<stop stop-color="#2A00B0"/>
<stop offset="1" stop-color="#2109B4"/>
</linearGradient>
<linearGradient id="paint47_linear_862_1102" x1="414.5" y1="34.0344" x2="414.5" y2="72.0344" gradientUnits="userSpaceOnUse">
<stop stop-color="#0111C5"/>
<stop offset="1" stop-color="#4500BF"/>
</linearGradient>
<linearGradient id="paint48_linear_862_1102" x1="449.126" y1="19.784" x2="455.126" y2="34.784" gradientUnits="userSpaceOnUse">
<stop stop-color="#59009A"/>
<stop offset="1" stop-color="#8D0083"/>
</linearGradient>
<linearGradient id="paint49_linear_862_1102" x1="236" y1="34.5" x2="267" y2="34.5" gradientUnits="userSpaceOnUse">
<stop stop-color="#5A00B9"/>
<stop offset="1" stop-color="#2507C0"/>
</linearGradient>
</defs>
</svg>
