<svg width="2051" height="1346" viewBox="0 0 2051 1346" fill="none" xmlns="http://www.w3.org/2000/svg">
<path d="M1031.5 590.744C1164.71 353.09 1392.59 263.962 1549.77 247.849C1578.99 324.884 1603.83 406.471 1604.36 498.586C1604.89 592.744 1580.03 698.442 1507.48 821.804C1398.7 985.647 1212.05 1086.91 1028.22 1105.89C938.905 988.451 929.605 772.545 1031.5 590.744Z" stroke="#3D6BAE" stroke-width="16"/>
<path d="M567.171 851.867C411.187 627.316 436.387 392.52 495.491 251.915C580.096 263.425 666.828 280.788 751.814 323.675C838.704 367.522 924.261 438.306 1003.64 557.76C1103.21 726.922 1108.55 932.53 1039.55 1097.03C889.51 1117.35 686.503 1023.66 567.171 851.867Z" stroke="#3D6BAE" stroke-width="16"/>
<path d="M456.835 1085.75C219.861 961.082 154.302 781.411 138.679 631.423C245.85 574.855 483.008 533.346 730.463 661.566C900.99 766.299 1009.22 944.569 1024.06 1109.94C878.177 1190.41 645.493 1185 456.835 1085.75Z" stroke="#C2DCFF" stroke-width="16"/>
<path d="M1306.49 660.34C1546.77 518.956 1761.94 555.106 1905.49 617.284C1902.84 734.586 1821.46 952.241 1581.79 1093.39C1401.64 1182.56 1186.27 1182.96 1029.57 1112.17C1021.96 1040.8 1044.54 955.916 1091.96 874.975C1140.29 792.479 1214.06 714.727 1306.49 660.34Z" stroke="#C2DCFF" stroke-width="16"/>
<circle cx="979" cy="32.5" r="32.5" fill="#C2CDFF"/>
<circle cx="1063" cy="78" r="30" fill="#C2CDFF"/>
<path d="M1029.62 166.347C1154.32 265.424 1280.58 394.268 1286.58 660.641C1280.71 845.463 1177.21 1006.62 1027.69 1117.04C902.902 1054.41 776.567 820.139 776.568 690.207C776.569 405.534 871.222 284.731 1029.62 166.347Z" fill="url(#paint0_linear_845_1075)"/>
<defs>
<linearGradient id="paint0_linear_845_1075" x1="1009.4" y1="167.151" x2="1047.12" y2="1116.27" gradientUnits="userSpaceOnUse">
<stop offset="0.427885" stop-color="#C2CDFF"/>
<stop offset="1" stop-color="#9FA8CD"/>
</linearGradient>
</defs>
</svg>
